<mxfile host="app.diagrams.net" agent="Mozilla/5.0 (Windows NT 10.0; Win64; x64) AppleWebKit/537.36 (KHTML, like Gecko) Chrome/134.0.0.0 Safari/537.36 OPR/119.0.0.0" version="27.1.5">
  <diagram name="Page-1" id="hPYAo8ntftf9WXemNx9c">
    <mxGraphModel dx="1621" dy="1858" grid="1" gridSize="10" guides="1" tooltips="1" connect="1" arrows="1" fold="1" page="1" pageScale="1" pageWidth="850" pageHeight="1100" math="0" shadow="0">
      <root>
        <mxCell id="0" />
        <mxCell id="1" parent="0" />
        <mxCell id="s7t0fUf4Ks-9LsSo9LzH-1" value="User&lt;div&gt;&lt;br&gt;&lt;/div&gt;" style="shape=umlActor;verticalLabelPosition=bottom;verticalAlign=top;html=1;" vertex="1" parent="1">
          <mxGeometry x="30" width="210" height="480" as="geometry" />
        </mxCell>
        <mxCell id="s7t0fUf4Ks-9LsSo9LzH-2" value="Login" style="ellipse;whiteSpace=wrap;html=1;fillColor=light-dark(#FFFFFF,#FF3333);" vertex="1" parent="1">
          <mxGeometry x="515" y="-20" width="110" height="60" as="geometry" />
        </mxCell>
        <mxCell id="s7t0fUf4Ks-9LsSo9LzH-3" value="View Balance" style="ellipse;whiteSpace=wrap;html=1;fillColor=light-dark(#FFFFFF,#FF8000);" vertex="1" parent="1">
          <mxGeometry x="530" y="160" width="110" height="70" as="geometry" />
        </mxCell>
        <mxCell id="s7t0fUf4Ks-9LsSo9LzH-4" value="Send Money" style="ellipse;whiteSpace=wrap;html=1;fillColor=light-dark(#FFFFFF,#66CC00);" vertex="1" parent="1">
          <mxGeometry x="490" y="330" width="120" height="60" as="geometry" />
        </mxCell>
        <mxCell id="s7t0fUf4Ks-9LsSo9LzH-5" value="Register" style="ellipse;whiteSpace=wrap;html=1;fillColor=light-dark(#FFFFFF,#3333FF);" vertex="1" parent="1">
          <mxGeometry x="350" y="-180" width="110" height="60" as="geometry" />
        </mxCell>
        <mxCell id="s7t0fUf4Ks-9LsSo9LzH-6" value="View Transaction&lt;div&gt;History&lt;/div&gt;" style="ellipse;whiteSpace=wrap;html=1;fillColor=light-dark(#FFFFFF,#6600CC);" vertex="1" parent="1">
          <mxGeometry x="450" y="410" width="110" height="70" as="geometry" />
        </mxCell>
        <mxCell id="s7t0fUf4Ks-9LsSo9LzH-8" value="Logout" style="ellipse;whiteSpace=wrap;html=1;fillColor=light-dark(#FFFFFF,#33001A);" vertex="1" parent="1">
          <mxGeometry x="350" y="470" width="110" height="70" as="geometry" />
        </mxCell>
        <mxCell id="s7t0fUf4Ks-9LsSo9LzH-10" value="" style="endArrow=classic;html=1;rounded=0;entryX=0.245;entryY=0.9;entryDx=0;entryDy=0;entryPerimeter=0;" edge="1" parent="1" target="s7t0fUf4Ks-9LsSo9LzH-5">
          <mxGeometry width="50" height="50" relative="1" as="geometry">
            <mxPoint x="150" y="160" as="sourcePoint" />
            <mxPoint x="200" y="110" as="targetPoint" />
          </mxGeometry>
        </mxCell>
        <mxCell id="s7t0fUf4Ks-9LsSo9LzH-11" value="" style="endArrow=classic;html=1;rounded=0;exitX=0.511;exitY=0.35;exitDx=0;exitDy=0;exitPerimeter=0;entryX=0.009;entryY=0.4;entryDx=0;entryDy=0;entryPerimeter=0;" edge="1" parent="1" source="s7t0fUf4Ks-9LsSo9LzH-1" target="s7t0fUf4Ks-9LsSo9LzH-2">
          <mxGeometry width="50" height="50" relative="1" as="geometry">
            <mxPoint x="400" y="230" as="sourcePoint" />
            <mxPoint x="450" y="180" as="targetPoint" />
          </mxGeometry>
        </mxCell>
        <mxCell id="s7t0fUf4Ks-9LsSo9LzH-12" value="" style="endArrow=classic;html=1;rounded=0;exitX=0.505;exitY=0.392;exitDx=0;exitDy=0;exitPerimeter=0;entryX=0.055;entryY=0.8;entryDx=0;entryDy=0;entryPerimeter=0;" edge="1" parent="1" source="s7t0fUf4Ks-9LsSo9LzH-1" target="s7t0fUf4Ks-9LsSo9LzH-3">
          <mxGeometry width="50" height="50" relative="1" as="geometry">
            <mxPoint x="400" y="230" as="sourcePoint" />
            <mxPoint x="450" y="180" as="targetPoint" />
          </mxGeometry>
        </mxCell>
        <mxCell id="s7t0fUf4Ks-9LsSo9LzH-13" value="" style="endArrow=classic;html=1;rounded=0;exitX=0.521;exitY=0.469;exitDx=0;exitDy=0;exitPerimeter=0;entryX=0.058;entryY=0.317;entryDx=0;entryDy=0;entryPerimeter=0;" edge="1" parent="1" source="s7t0fUf4Ks-9LsSo9LzH-1" target="s7t0fUf4Ks-9LsSo9LzH-4">
          <mxGeometry width="50" height="50" relative="1" as="geometry">
            <mxPoint x="400" y="230" as="sourcePoint" />
            <mxPoint x="450" y="180" as="targetPoint" />
          </mxGeometry>
        </mxCell>
        <mxCell id="s7t0fUf4Ks-9LsSo9LzH-14" value="" style="endArrow=classic;html=1;rounded=0;exitX=0.505;exitY=0.575;exitDx=0;exitDy=0;exitPerimeter=0;entryX=0.055;entryY=0.314;entryDx=0;entryDy=0;entryPerimeter=0;" edge="1" parent="1" source="s7t0fUf4Ks-9LsSo9LzH-1" target="s7t0fUf4Ks-9LsSo9LzH-6">
          <mxGeometry width="50" height="50" relative="1" as="geometry">
            <mxPoint x="400" y="230" as="sourcePoint" />
            <mxPoint x="450" y="180" as="targetPoint" />
          </mxGeometry>
        </mxCell>
        <mxCell id="s7t0fUf4Ks-9LsSo9LzH-15" value="" style="endArrow=classic;html=1;rounded=0;exitX=0.495;exitY=0.617;exitDx=0;exitDy=0;exitPerimeter=0;entryX=0.364;entryY=0;entryDx=0;entryDy=0;entryPerimeter=0;" edge="1" parent="1" source="s7t0fUf4Ks-9LsSo9LzH-1" target="s7t0fUf4Ks-9LsSo9LzH-8">
          <mxGeometry width="50" height="50" relative="1" as="geometry">
            <mxPoint x="400" y="230" as="sourcePoint" />
            <mxPoint x="450" y="180" as="targetPoint" />
          </mxGeometry>
        </mxCell>
        <mxCell id="s7t0fUf4Ks-9LsSo9LzH-17" value="Manage Account" style="ellipse;whiteSpace=wrap;html=1;fillColor=light-dark(#FFFFFF,#006600);" vertex="1" parent="1">
          <mxGeometry x="515" y="240" width="110" height="60" as="geometry" />
        </mxCell>
        <mxCell id="s7t0fUf4Ks-9LsSo9LzH-18" value="" style="endArrow=classic;html=1;rounded=0;exitX=0.524;exitY=0.423;exitDx=0;exitDy=0;exitPerimeter=0;entryX=0.055;entryY=0.2;entryDx=0;entryDy=0;entryPerimeter=0;" edge="1" parent="1" source="s7t0fUf4Ks-9LsSo9LzH-1" target="s7t0fUf4Ks-9LsSo9LzH-17">
          <mxGeometry width="50" height="50" relative="1" as="geometry">
            <mxPoint x="540" y="180" as="sourcePoint" />
            <mxPoint x="590" y="130" as="targetPoint" />
          </mxGeometry>
        </mxCell>
        <mxCell id="s7t0fUf4Ks-9LsSo9LzH-21" value="" style="endArrow=classic;html=1;rounded=0;exitX=0.543;exitY=0.34;exitDx=0;exitDy=0;exitPerimeter=0;entryX=0.064;entryY=0.833;entryDx=0;entryDy=0;entryPerimeter=0;" edge="1" parent="1" source="s7t0fUf4Ks-9LsSo9LzH-1" target="s7t0fUf4Ks-9LsSo9LzH-26">
          <mxGeometry width="50" height="50" relative="1" as="geometry">
            <mxPoint x="770" y="180" as="sourcePoint" />
            <mxPoint x="452.9699999999998" y="31.029999999999973" as="targetPoint" />
          </mxGeometry>
        </mxCell>
        <mxCell id="s7t0fUf4Ks-9LsSo9LzH-22" value="" style="edgeStyle=orthogonalEdgeStyle;curved=1;dashed=1;startArrow=classic;endArrow=none;html=1;labelBackgroundColor=#FFFFFF;labelPosition=center;label=&lt;&lt;extend&gt;&gt;;entryX=0.427;entryY=0.05;entryDx=0;entryDy=0;entryPerimeter=0;" edge="1" parent="1" source="s7t0fUf4Ks-9LsSo9LzH-5" target="s7t0fUf4Ks-9LsSo9LzH-26">
          <mxGeometry width="50" height="50" relative="1" as="geometry">
            <mxPoint x="770" y="180" as="sourcePoint" />
            <mxPoint x="505" y="-20" as="targetPoint" />
          </mxGeometry>
        </mxCell>
        <mxCell id="s7t0fUf4Ks-9LsSo9LzH-25" value="&amp;lt;&amp;lt;extend&amp;gt;&amp;gt;" style="edgeLabel;html=1;align=center;verticalAlign=middle;resizable=0;points=[];" vertex="1" connectable="0" parent="s7t0fUf4Ks-9LsSo9LzH-22">
          <mxGeometry x="0.26" y="-3" relative="1" as="geometry">
            <mxPoint as="offset" />
          </mxGeometry>
        </mxCell>
        <mxCell id="s7t0fUf4Ks-9LsSo9LzH-26" value="Open Savings Account" style="ellipse;whiteSpace=wrap;html=1;fillColor=light-dark(#FFFFFF,#000066);" vertex="1" parent="1">
          <mxGeometry x="450" y="-90" width="110" height="60" as="geometry" />
        </mxCell>
        <mxCell id="s7t0fUf4Ks-9LsSo9LzH-28" value="Enable MFA" style="ellipse;whiteSpace=wrap;html=1;fillColor=light-dark(#FFFFFF,#990000);" vertex="1" parent="1">
          <mxGeometry x="520" y="90" width="100" height="60" as="geometry" />
        </mxCell>
        <mxCell id="s7t0fUf4Ks-9LsSo9LzH-29" value="" style="endArrow=classic;html=1;rounded=0;exitX=0.5;exitY=0.367;exitDx=0;exitDy=0;exitPerimeter=0;entryX=0.04;entryY=0.683;entryDx=0;entryDy=0;entryPerimeter=0;" edge="1" parent="1" source="s7t0fUf4Ks-9LsSo9LzH-1" target="s7t0fUf4Ks-9LsSo9LzH-28">
          <mxGeometry width="50" height="50" relative="1" as="geometry">
            <mxPoint x="770" y="180" as="sourcePoint" />
            <mxPoint x="820" y="130" as="targetPoint" />
          </mxGeometry>
        </mxCell>
        <mxCell id="s7t0fUf4Ks-9LsSo9LzH-30" value="" style="edgeStyle=orthogonalEdgeStyle;curved=1;dashed=1;startArrow=classic;endArrow=none;html=1;labelBackgroundColor=#FFFFFF;labelPosition=center;label=&lt;&lt;include&gt;&gt;;" edge="1" parent="1" source="s7t0fUf4Ks-9LsSo9LzH-2" target="s7t0fUf4Ks-9LsSo9LzH-28">
          <mxGeometry width="50" height="50" relative="1" as="geometry">
            <mxPoint x="770" y="180" as="sourcePoint" />
            <mxPoint x="820" y="130" as="targetPoint" />
          </mxGeometry>
        </mxCell>
        <mxCell id="s7t0fUf4Ks-9LsSo9LzH-31" value="&amp;lt;&amp;lt;include&amp;gt;&amp;gt;" style="edgeLabel;html=1;align=center;verticalAlign=middle;resizable=0;points=[];" vertex="1" connectable="0" parent="s7t0fUf4Ks-9LsSo9LzH-30">
          <mxGeometry x="0.0667" y="-3" relative="1" as="geometry">
            <mxPoint as="offset" />
          </mxGeometry>
        </mxCell>
        <mxCell id="s7t0fUf4Ks-9LsSo9LzH-32" value="FinTech Mobile App" style="rounded=0;whiteSpace=wrap;html=1;" vertex="1" parent="1">
          <mxGeometry x="940" y="-340" width="380" height="740" as="geometry" />
        </mxCell>
        <mxCell id="s7t0fUf4Ks-9LsSo9LzH-33" value="&#xa;&lt;p style=&quot;white-space: pre-wrap;&quot; dir=&quot;auto&quot;&gt;Performance: Must complete within 4 seconds (NFR-001)&lt;/p&gt;&#xa;&#xa;" style="shape=note;whiteSpace=wrap;html=1;backgroundOutline=1;darkOpacity=0.05;" vertex="1" parent="1">
          <mxGeometry x="760" y="380" width="100" height="130" as="geometry" />
        </mxCell>
        <mxCell id="s7t0fUf4Ks-9LsSo9LzH-35" value="" style="endArrow=classic;html=1;rounded=0;entryX=1;entryY=0.5;entryDx=0;entryDy=0;exitX=0.02;exitY=0.554;exitDx=0;exitDy=0;exitPerimeter=0;" edge="1" parent="1" source="s7t0fUf4Ks-9LsSo9LzH-33" target="s7t0fUf4Ks-9LsSo9LzH-4">
          <mxGeometry width="50" height="50" relative="1" as="geometry">
            <mxPoint x="770" y="230" as="sourcePoint" />
            <mxPoint x="820" y="180" as="targetPoint" />
          </mxGeometry>
        </mxCell>
        <mxCell id="s7t0fUf4Ks-9LsSo9LzH-36" value="" style="endArrow=classic;html=1;rounded=0;entryX=1;entryY=0.6;entryDx=0;entryDy=0;entryPerimeter=0;exitX=0.2;exitY=-0.008;exitDx=0;exitDy=0;exitPerimeter=0;" edge="1" parent="1" source="s7t0fUf4Ks-9LsSo9LzH-33" target="s7t0fUf4Ks-9LsSo9LzH-3">
          <mxGeometry width="50" height="50" relative="1" as="geometry">
            <mxPoint x="770" y="230" as="sourcePoint" />
            <mxPoint x="820" y="180" as="targetPoint" />
          </mxGeometry>
        </mxCell>
      </root>
    </mxGraphModel>
  </diagram>
</mxfile>
